<svg xmlns="http://www.w3.org/2000/svg" width="19" height="20" viewBox="0 0 19 20" fill="none">
<path d="M17.291 3.99997H18.001C18.2662 3.99997 18.5206 4.10532 18.7081 4.29286C18.8956 4.4804 19.001 4.73475 19.001 4.99997V12C19.001 12.2652 18.8956 12.5195 18.7081 12.7071C18.5206 12.8946 18.2662 13 18.001 13H16.001L11.831 7.16397C11.5885 6.82461 11.2459 6.56957 10.8512 6.43455C10.4566 6.29953 10.0296 6.29129 9.63 6.41097L7.144 7.15697C6.79817 7.26049 6.43078 7.26849 6.08078 7.18011C5.73077 7.09173 5.41122 6.91026 5.156 6.65497L4.863 6.36197C4.75839 6.25738 4.67829 6.13088 4.62846 5.9916C4.57864 5.85232 4.56034 5.70371 4.57488 5.5565C4.58942 5.4093 4.63644 5.26714 4.71254 5.1403C4.78865 5.01345 4.89195 4.90507 5.015 4.82297L10.416 1.22297C10.7384 1.00788 11.1164 0.8911 11.5039 0.88684C11.8915 0.882579 12.2719 0.991017 12.599 1.19897L16.755 3.84397C16.9149 3.94561 17.1015 3.99971 17.291 3.99997ZM3.027 12.295L1.411 13.709C1.30055 13.8058 1.21279 13.9257 1.15395 14.0603C1.09511 14.1949 1.06663 14.3408 1.07055 14.4876C1.07446 14.6344 1.11067 14.7786 1.1766 14.9098C1.24252 15.0411 1.33655 15.1562 1.452 15.247L6.592 19.287C6.70499 19.3759 6.83584 19.4394 6.97562 19.4732C7.11539 19.507 7.26081 19.5102 7.40195 19.4827C7.5431 19.4552 7.67664 19.3976 7.79348 19.3137C7.91032 19.2299 8.00771 19.1219 8.079 18.997L8.783 17.765C8.99264 17.3981 9.08069 16.9742 9.03452 16.5542C8.98835 16.1342 8.81033 15.7396 8.526 15.427L5.824 12.455C5.47164 12.0673 4.98123 11.8333 4.4582 11.8034C3.93516 11.7735 3.42127 11.95 3.027 12.295ZM5.046 2.99997H1C0.734784 2.99997 0.48043 3.10532 0.292893 3.29286C0.105357 3.4804 0 3.73475 0 3.99997V11.516C5.35399e-05 11.9193 0.122058 12.3132 0.35 12.646C0.374246 12.6235 0.398918 12.6015 0.424 12.58L2.039 11.166C2.72899 10.5622 3.62835 10.2533 4.54372 10.3056C5.45909 10.358 6.31736 10.7674 6.934 11.446L9.636 14.418C10.1333 14.9648 10.4447 15.6551 10.5255 16.3899C10.6063 17.1246 10.4525 17.8661 10.086 18.508L9.431 19.654C9.71358 19.7611 10.0168 19.8028 10.3178 19.776C10.6188 19.7492 10.9098 19.6544 11.169 19.499L15.579 16.853C15.6972 16.7819 15.7995 16.6872 15.8794 16.5747C15.9592 16.4622 16.0149 16.3344 16.043 16.1994C16.0711 16.0643 16.0709 15.9249 16.0425 15.7899C16.0141 15.6549 15.9581 15.5273 15.878 15.415L10.611 8.03597C10.5503 7.95122 10.4647 7.88755 10.3661 7.85384C10.2675 7.82013 10.1608 7.81808 10.061 7.84797L7.575 8.59297C6.9698 8.77452 6.32673 8.78885 5.71404 8.63444C5.10135 8.48004 4.54188 8.16265 4.095 7.71597L3.802 7.42297C3.54038 7.16149 3.34005 6.84522 3.21544 6.49696C3.09083 6.1487 3.04505 5.77713 3.0814 5.40904C3.11775 5.04095 3.23532 4.68551 3.42564 4.36835C3.61597 4.0512 3.87429 3.78022 4.182 3.57497L5.046 2.99997Z" fill="url(#paint0_linear_227_2692)"/>
<defs>
<linearGradient id="paint0_linear_227_2692" x1="9.5005" y1="0.886719" x2="9.5005" y2="19.7839" gradientUnits="userSpaceOnUse">
<stop stop-color="#982815"/>
<stop offset="1" stop-color="#EF7878"/>
</linearGradient>
</defs>
</svg>